<svg xmlns:xlink="http://www.w3.org/1999/xlink" xmlns="http://www.w3.org/2000/svg" width="50" height="50" viewBox="0 0 50 50" fill="none">
<path d="M17.0148 7.7524C17.4981 6.48381 18.1626 5.31589 19.1493 4.36947C23.0961 0.523406 29.6203 1.48996 32.2984 6.32271C34.3121 9.98756 36.4466 13.5718 38.5206 17.1964C41.9841 23.2172 45.4878 29.238 48.911 35.279C51.7906 40.3332 48.6694 46.7165 42.9506 47.5824C39.4469 48.1059 36.1646 46.495 34.3524 43.3537C31.3118 38.0578 28.251 32.7619 25.2104 27.4862C25.15 27.3653 25.0694 27.2647 24.9889 27.164C24.6667 26.9022 24.5258 26.5196 24.3244 26.1773C22.9752 23.8012 21.5858 21.4452 20.2367 19.0892C19.3708 17.5589 18.4647 16.0486 17.5988 14.5183C16.8135 13.149 16.451 11.6589 16.4913 10.0882C16.5517 9.28278 16.6524 8.47732 17.0148 7.7524Z" fill="#3C8BD9"/>
<path d="M17.0149 7.75241C16.8336 8.47732 16.6725 9.20224 16.6323 9.96742C16.5719 11.6589 16.9947 13.2295 17.8405 14.6995C20.0555 18.5053 22.2705 22.3312 24.4654 26.1572C24.6667 26.4995 24.8278 26.8418 25.0292 27.164C23.821 29.2582 22.6128 31.3322 21.3845 33.4264C19.693 36.3462 18.0016 39.2861 16.29 42.2059C16.2094 42.2059 16.1893 42.1657 16.1691 42.1053C16.149 41.9442 16.2094 41.8032 16.2497 41.6421C17.0753 38.6216 16.3906 35.9435 14.3166 33.6479C13.048 32.2585 11.4371 31.4732 9.5845 31.2114C7.16812 30.8691 5.03366 31.4933 3.12069 33.0036C2.77837 33.2653 2.55687 33.6479 2.15414 33.8493C2.07359 33.8493 2.03332 33.809 2.01318 33.7486C2.97973 32.0773 3.92615 30.406 4.8927 28.7346C8.87973 21.8077 12.8667 14.8807 16.8739 7.97391C16.9142 7.89337 16.9746 7.83296 17.0149 7.75241Z" fill="#FABC04"/>
<path d="M2.09375 33.809C2.47634 33.4667 2.8388 33.1043 3.24153 32.7821C8.1347 28.9159 15.4845 31.7148 16.5517 37.8363C16.8135 39.3063 16.6726 40.7158 16.2296 42.1254C16.2094 42.2462 16.1893 42.3469 16.149 42.4677C15.9678 42.7899 15.8067 43.1322 15.6053 43.4544C13.8132 46.4145 11.1753 47.8844 7.71183 47.6629C3.74494 47.381 0.623785 44.4008 0.0801 40.4541C-0.181674 38.5411 0.200919 36.749 1.18761 35.0978C1.38897 34.7353 1.63061 34.4131 1.85211 34.0507C1.95279 33.9701 1.91252 33.809 2.09375 33.809Z" fill="#34A852"/>
<path d="M2.09377 33.809C2.01323 33.8896 2.01323 34.0305 1.87227 34.0507C1.85213 33.9097 1.93268 33.8292 2.01323 33.7285L2.09377 33.809Z" fill="#FABC04"/>
<path d="M16.149 42.4677C16.0684 42.3268 16.149 42.2261 16.2295 42.1254C16.2496 42.1455 16.2899 42.1858 16.3101 42.2059L16.149 42.4677Z" fill="#E1C025"/>
</svg>