<svg xmlns:xlink="http://www.w3.org/1999/xlink" xmlns="http://www.w3.org/2000/svg" width="50" height="50" viewBox="0 0 50 50" fill="none">
<g clip-path="url(#clip0_7_376)">
<path d="M3.26149 3.47168C-0.656392 7.54079 0.145463 11.8633 0.145463 24.995C0.145463 35.8999 -1.75739 46.8319 8.20142 49.4055C11.3112 50.2052 38.8652 50.2052 41.9708 49.4013C46.1172 48.3316 49.4908 44.9687 49.952 39.1049C50.0164 38.2866 50.0164 11.7179 49.9499 10.8829C49.4596 4.63695 45.6145 1.03727 40.5478 0.308198C39.3866 0.13995 39.1539 0.0900987 33.1961 0.0797131C12.0632 0.0900987 7.43072 -0.850844 3.26149 3.47168Z" fill="url(#paint0_linear_7_376)"/>
<path d="M25.0694 6.59986C17.5266 6.59986 10.3639 5.92894 7.62803 12.9497C6.49795 15.8493 6.66206 19.6152 6.66206 25.0074C6.66206 29.7392 6.51041 34.1863 7.62803 37.0631C10.3577 44.088 17.5785 43.415 25.0653 43.415C32.2882 43.415 39.7355 44.1669 42.5046 37.0631C43.6368 34.1344 43.4706 30.4246 43.4706 25.0074C43.4706 17.8164 43.8674 13.174 40.3795 9.68856C36.848 6.15743 32.0722 6.59986 25.0611 6.59986H25.0694ZM23.42 9.91704C39.1539 9.89212 41.1564 8.14317 40.0513 32.4394C39.6586 41.0325 33.115 40.0895 25.0715 40.0895C10.4054 40.0895 9.98374 39.6699 9.98374 24.9991C9.98374 10.158 11.1471 9.92535 23.42 9.91289V9.91704ZM34.8953 12.9725C33.6759 12.9725 32.6871 13.9612 32.6871 15.1805C32.6871 16.3998 33.6759 17.3885 34.8953 17.3885C36.1147 17.3885 37.1035 16.3998 37.1035 15.1805C37.1035 13.9612 36.1147 12.9725 34.8953 12.9725ZM25.0694 15.5544C19.8491 15.5544 15.6175 19.7876 15.6175 25.0074C15.6175 30.2273 19.8491 34.4584 25.0694 34.4584C30.2898 34.4584 34.5193 30.2273 34.5193 25.0074C34.5193 19.7876 30.2898 15.5544 25.0694 15.5544ZM25.0694 18.8716C33.1815 18.8716 33.1919 31.1433 25.0694 31.1433C16.9595 31.1433 16.947 18.8716 25.0694 18.8716Z" fill="white"/>
</g>
<defs>
<linearGradient id="paint0_linear_7_376" x1="3.35708" y1="46.7469" x2="49.6892" y2="6.6429" gradientUnits="userSpaceOnUse">
<stop stop-color="#FFDD55"/>
<stop offset="0.5" stop-color="#FF543E"/>
<stop offset="1" stop-color="#C837AB"/>
</linearGradient>
<clipPath id="clip0_7_376">
<rect width="50" height="50" fill="white"/>
</clipPath>
</defs>
</svg>